<?xml version="1.0" encoding="utf-8"?>
<!-- Generator: Adobe Illustrator 16.0.4, SVG Export Plug-In . SVG Version: 6.00 Build 0)  -->
<!DOCTYPE svg PUBLIC "-//W3C//DTD SVG 1.1//EN" "http://www.w3.org/Graphics/SVG/1.1/DTD/svg11.dtd">
<svg version="1.1" id="Layer_1" xmlns="http://www.w3.org/2000/svg" xmlns:xlink="http://www.w3.org/1999/xlink" x="0px" y="0px"
	 width="576px" height="576px" viewBox="0 0 576 576" enable-background="new 0 0 576 576" xml:space="preserve">
<line fill="none" stroke="#000000" stroke-width="0.25" stroke-miterlimit="10" x1="121.667" y1="159.966" x2="229.875" y2="160.375"/>
<line fill="none" stroke="#000000" stroke-width="0.25" stroke-miterlimit="10" x1="292.334" y1="219" x2="266.292" y2="200.625"/>
<line fill="none" stroke="#000000" stroke-width="0.25" stroke-miterlimit="10" x1="305" y1="174" x2="286.333" y2="159.667"/>
<line fill="none" stroke="#000000" stroke-width="0.25" stroke-miterlimit="10" x1="260.25" y1="197.792" x2="206" y2="187.5"/>
<line fill="none" stroke="#000000" stroke-width="0.25" stroke-miterlimit="10" x1="177.5" y1="221" x2="225.333" y2="228.667"/>
<line fill="none" stroke="#000000" stroke-width="0.25" stroke-miterlimit="10" x1="121.667" y1="249.667" x2="121.667" y2="212.5"/>
<line fill="none" stroke="#000000" stroke-width="0.25" stroke-miterlimit="10" x1="139.5" y1="218.99" x2="121.667" y2="212.5"/>
<line fill="none" stroke="#000000" stroke-width="0.25" stroke-miterlimit="10" x1="155.5" y1="219.5" x2="139.5" y2="218.99"/>
<line fill="none" stroke="#000000" stroke-width="0.25" stroke-miterlimit="10" x1="159.5" y1="189.167" x2="121.667" y2="159.966"/>
<line fill="none" stroke="#000000" stroke-width="0.25" stroke-miterlimit="10" x1="183.5" y1="239" x2="225.333" y2="228.667"/>
<line fill="none" stroke="#000000" stroke-width="0.25" stroke-miterlimit="10" x1="173.667" y1="253.667" x2="177.5" y2="244"/>
<line fill="none" stroke="#000000" stroke-width="0.25" stroke-miterlimit="10" x1="206" y1="187.5" x2="229.875" y2="160.375"/>
<line fill="none" stroke="#000000" stroke-width="0.25" stroke-miterlimit="10" x1="185" y1="283.5" x2="198.167" y2="267.5"/>
<line fill="none" stroke="#000000" stroke-width="0.25" stroke-miterlimit="10" x1="121.667" y1="300.5" x2="180.431" y2="285.896"/>
<line fill="none" stroke="#000000" stroke-width="0.25" stroke-miterlimit="10" x1="175.5" y1="237" x2="183.5" y2="239"/>
<line fill="none" stroke="#000000" stroke-width="0.25" stroke-miterlimit="10" x1="177.5" y1="244" x2="175.5" y2="237"/>
<line fill="none" stroke="#000000" stroke-width="0.25" stroke-miterlimit="10" x1="177.5" y1="244" x2="183.5" y2="239"/>
<line fill="none" stroke="#000000" stroke-width="0.25" stroke-miterlimit="10" x1="283.167" y1="196.833" x2="306.834" y2="187.833"/>
<line fill="none" stroke="#000000" stroke-width="0.25" stroke-miterlimit="10" x1="267.458" y1="198.208" x2="283.167" y2="196.833"/>
<line fill="none" stroke="#000000" stroke-width="0.25" stroke-miterlimit="10" x1="283.167" y1="196.833" x2="304.468" y2="215.066"/>
<line fill="none" stroke="#000000" stroke-width="0.25" stroke-miterlimit="10" x1="335.285" y1="188.929" x2="306.834" y2="187.833"/>
<line fill="none" stroke="#000000" stroke-width="0.25" stroke-miterlimit="10" x1="198.167" y1="267.5" x2="229.667" y2="271"/>
<line fill="none" stroke="#000000" stroke-width="0.25" stroke-miterlimit="10" x1="173.667" y1="253.667" x2="198.167" y2="267.5"/>
<line fill="none" stroke="#000000" stroke-width="0.25" stroke-miterlimit="10" x1="164.5" y1="203.5" x2="177.5" y2="221"/>
<line fill="none" stroke="#000000" stroke-width="0.25" stroke-miterlimit="10" x1="121.667" y1="159.966" x2="121.667" y2="212.5"/>
<line fill="none" stroke="#000000" stroke-width="0.25" stroke-miterlimit="10" x1="121.667" y1="249.667" x2="173.667" y2="253.667"/>
<line fill="none" stroke="#000000" stroke-width="0.25" stroke-miterlimit="10" x1="249.837" y1="255.241" x2="229.667" y2="271"/>
<line fill="none" stroke="#000000" stroke-width="0.25" stroke-miterlimit="10" x1="256.997" y1="232.377" x2="249.837" y2="255.241"/>
<line fill="none" stroke="#000000" stroke-width="0.25" stroke-miterlimit="10" x1="336.562" y1="159.75" x2="365.667" y2="160.334"/>
<line fill="none" stroke="#000000" stroke-width="0.25" stroke-miterlimit="10" x1="286.333" y1="159.667" x2="336.562" y2="159.75"/>
<line fill="none" stroke="#000000" stroke-width="0.25" stroke-miterlimit="10" x1="229.875" y1="160.375" x2="286.333" y2="159.667"/>
<line fill="none" stroke="#000000" stroke-width="0.25" stroke-miterlimit="10" x1="305" y1="174" x2="336.562" y2="159.75"/>
<line fill="none" stroke="#000000" stroke-width="0.25" stroke-miterlimit="10" x1="335.285" y1="188.929" x2="365.667" y2="160.334"/>
<line fill="none" stroke="#000000" stroke-width="0.25" stroke-miterlimit="10" x1="332.558" y1="203.065" x2="335.285" y2="188.929"/>
<line fill="none" stroke="#000000" stroke-width="0.25" stroke-miterlimit="10" x1="318.101" y1="214.651" x2="332.558" y2="203.065"/>
<line fill="none" stroke="#000000" stroke-width="0.25" stroke-miterlimit="10" x1="304.468" y1="215.066" x2="318.101" y2="214.651"/>
<line fill="none" stroke="#000000" stroke-width="0.25" stroke-miterlimit="10" x1="292.334" y1="219" x2="304.468" y2="215.066"/>
<line fill="none" stroke="#000000" stroke-width="0.25" stroke-miterlimit="10" x1="121.667" y1="249.667" x2="121.667" y2="300.5"/>
<line fill="none" stroke="#000000" stroke-width="0.25" stroke-miterlimit="10" x1="284.105" y1="227.192" x2="292.334" y2="219"/>
<line fill="none" stroke="#000000" stroke-width="0.25" stroke-miterlimit="10" x1="256.997" y1="232.377" x2="284.105" y2="227.192"/>
<line fill="none" stroke="#000000" stroke-width="0.25" stroke-miterlimit="10" x1="225.333" y1="228.667" x2="256.997" y2="232.377"/>
<line fill="none" stroke="#000000" stroke-width="0.25" stroke-miterlimit="10" x1="206" y1="187.5" x2="159.5" y2="189.167"/>
<line fill="none" stroke="#000000" stroke-width="0.25" stroke-miterlimit="10" x1="305" y1="174" x2="306.834" y2="187.833"/>
<line fill="none" stroke="#000000" stroke-width="0.25" stroke-miterlimit="10" x1="159.5" y1="189.167" x2="164.5" y2="203.5"/>
<line fill="none" stroke="#000000" stroke-width="0.25" stroke-miterlimit="10" x1="164.5" y1="203.5" x2="155.5" y2="219.5"/>
<line fill="none" stroke="#000000" stroke-width="0.25" stroke-miterlimit="10" x1="155.5" y1="219.5" x2="177.5" y2="221"/>
<line fill="none" stroke="#000000" stroke-width="0.25" stroke-miterlimit="10" x1="365.667" y1="204.875" x2="332.558" y2="203.065"/>
<line fill="none" stroke="#000000" stroke-width="0.25" stroke-miterlimit="10" x1="334.614" y1="231.191" x2="365.667" y2="231.874"/>
<line fill="none" stroke="#000000" stroke-width="0.25" stroke-miterlimit="10" x1="318.101" y1="214.651" x2="334.614" y2="231.191"/>
<line fill="none" stroke="#000000" stroke-width="0.25" stroke-miterlimit="10" x1="365.667" y1="204.875" x2="365.667" y2="231.874"/>
<line fill="none" stroke="#000000" stroke-width="0.25" stroke-miterlimit="10" x1="365.667" y1="231.874" x2="365.667" y2="300.5"/>
<line fill="none" stroke="#000000" stroke-width="0.25" stroke-miterlimit="10" x1="292.068" y1="273.778" x2="277" y2="263.5"/>
<line fill="none" stroke="#000000" stroke-width="0.25" stroke-miterlimit="10" x1="300.625" y1="299.75" x2="292.068" y2="273.778"/>
<line fill="none" stroke="#000000" stroke-width="0.25" stroke-miterlimit="10" x1="185" y1="283.5" x2="180.431" y2="285.896"/>
<line fill="none" stroke="#000000" stroke-width="0.25" stroke-miterlimit="10" x1="185" y1="283.5" x2="183.464" y2="288.256"/>
<line fill="none" stroke="#000000" stroke-width="0.25" stroke-miterlimit="10" x1="183.464" y1="288.256" x2="180.431" y2="285.896"/>
<line fill="none" stroke="#000000" stroke-width="0.25" stroke-miterlimit="10" x1="320.595" y1="262.765" x2="365.667" y2="300.5"/>
<line fill="none" stroke="#000000" stroke-width="0.25" stroke-miterlimit="10" x1="365.667" y1="300.5" x2="300.625" y2="299.75"/>
<line fill="none" stroke="#000000" stroke-width="0.25" stroke-miterlimit="10" x1="316.625" y1="262.125" x2="292.068" y2="273.778"/>
<line fill="none" stroke="#000000" stroke-width="0.25" stroke-miterlimit="10" x1="334.614" y1="231.191" x2="320.125" y2="258.562"/>
<line fill="none" stroke="#000000" stroke-width="0.25" stroke-miterlimit="10" x1="284.105" y1="227.192" x2="277" y2="263.5"/>
<line fill="none" stroke="#000000" stroke-width="0.25" stroke-miterlimit="10" x1="249.837" y1="255.241" x2="277" y2="263.5"/>
<line fill="none" stroke="#000000" stroke-width="0.25" stroke-miterlimit="10" x1="365.667" y1="160.334" x2="365.667" y2="204.875"/>
<line fill="none" stroke="#000000" stroke-width="0.25" stroke-miterlimit="10" x1="300.625" y1="299.75" x2="235.625" y2="300.5"/>
<line fill="none" stroke="#000000" stroke-width="0.25" stroke-miterlimit="10" x1="235.625" y1="300.5" x2="229.667" y2="271"/>
<line fill="none" stroke="#000000" stroke-width="0.25" stroke-miterlimit="10" x1="235.625" y1="300.5" x2="179.125" y2="301"/>
<line fill="none" stroke="#000000" stroke-width="0.25" stroke-miterlimit="10" x1="183.464" y1="288.256" x2="179.125" y2="301"/>
<line fill="none" stroke="#000000" stroke-width="0.25" stroke-miterlimit="10" x1="179.125" y1="301" x2="121.667" y2="300.5"/>
<line fill="none" stroke="#000000" stroke-width="0.25" stroke-miterlimit="10" x1="175.5" y1="237" x2="139.5" y2="218.99"/>
<path fill="none" stroke="#000000" stroke-width="0.25" stroke-miterlimit="10" d="M-47,240.5"/>
<line fill="none" stroke="#000000" stroke-width="0.25" stroke-miterlimit="10" x1="260.25" y1="197.792" x2="267.458" y2="198.208"/>
<line fill="none" stroke="#000000" stroke-width="0.25" stroke-miterlimit="10" x1="260.25" y1="197.792" x2="266.292" y2="200.625"/>
<line fill="none" stroke="#000000" stroke-width="0.25" stroke-miterlimit="10" x1="266.292" y1="200.625" x2="267.458" y2="198.208"/>
<line fill="none" stroke="#000000" stroke-width="0.25" stroke-miterlimit="10" x1="316.625" y1="262.125" x2="320.125" y2="258.562"/>
<line fill="none" stroke="#000000" stroke-width="0.25" stroke-miterlimit="10" x1="320.595" y1="262.765" x2="320.125" y2="258.562"/>
<line fill="none" stroke="#000000" stroke-width="0.25" stroke-miterlimit="10" x1="316.625" y1="262.125" x2="320.595" y2="262.765"/>
</svg>
